<?xml version="1.0" standalone="no"?>
<!DOCTYPE svg PUBLIC "-//W3C//DTD SVG 20010904//EN"
 "http://www.w3.org/TR/2001/REC-SVG-20010904/DTD/svg10.dtd">
<svg version="1.0" xmlns="http://www.w3.org/2000/svg"
 width="512.000000pt" height="512.000000pt" viewBox="0 0 512.000000 512.000000"
 preserveAspectRatio="xMidYMid meet">
<metadata>
Created by potrace 1.14, written by Peter Selinger 2001-2017
</metadata>
<g transform="translate(0.000000,512.000000) scale(0.100000,-0.100000)"
fill="#000000" stroke="none">
<path d="M2012 4948 c-35 -39 -37 -89 -6 -190 4 -13 -8 -19 -68 -32 -140 -31
-244 -37 -390 -24 -151 13 -176 8 -197 -39 -21 -45 -13 -72 36 -124 l47 -50
-19 -35 c-68 -126 -217 -220 -393 -246 -62 -9 -82 -17 -104 -39 -57 -57 -27
-126 92 -214 l48 -35 -26 -78 c-24 -72 -26 -88 -24 -241 1 -90 0 -167 -3 -171
-2 -4 -35 0 -72 8 -56 13 -80 13 -137 3 -113 -19 -176 -53 -260 -141 -86 -90
-122 -148 -143 -227 -23 -89 2 -204 59 -276 l30 -39 -21 -64 c-12 -36 -35 -92
-51 -125 -42 -82 -85 -214 -109 -335 -58 -284 -46 -548 39 -903 55 -225 122
-345 285 -507 175 -174 330 -249 473 -228 31 5 66 9 77 9 11 0 26 4 33 8 7 5
22 0 38 -12 15 -12 35 -21 46 -21 19 0 19 9 17 258 -3 282 2 307 60 354 l26
20 -25 -7 c-41 -12 -74 -32 -99 -59 -14 -14 -31 -26 -39 -26 -22 0 -163 150
-201 213 -43 73 -96 207 -161 404 -28 87 -62 190 -75 228 -13 39 -43 117 -67
175 -25 58 -66 168 -93 245 -57 168 -57 205 3 333 l39 82 189 140 188 140 78
0 c89 0 82 12 57 -100 -15 -70 -62 -185 -105 -262 l-34 -60 53 7 c58 8 140 40
158 61 54 65 31 -165 -27 -278 -19 -37 -7 -36 68 4 33 17 82 56 110 87 47 51
51 54 64 37 17 -24 59 -153 75 -231 6 -33 15 -120 18 -192 l6 -133 45 40 c25
21 50 39 57 40 18 0 36 -135 29 -222 l-7 -78 38 15 c21 9 48 23 61 31 24 16
42 11 42 -10 0 -7 9 -25 20 -39 11 -14 20 -27 20 -30 0 -3 -33 -22 -74 -42
-41 -20 -100 -60 -132 -89 l-57 -52 13 -67 12 -67 -41 -45 c-23 -25 -60 -73
-82 -108 l-40 -62 70 -7 c39 -4 86 -14 105 -22 32 -13 39 -13 68 2 29 15 72
17 348 17 173 0 344 -1 380 -3 36 -2 137 0 225 3 189 8 284 -7 351 -53 l40
-29 30 24 c82 69 197 85 340 49 95 -23 127 -45 173 -115 43 -67 69 -174 80
-323 l6 -87 24 18 c17 13 25 31 28 65 l6 48 33 -5 c19 -3 34 -2 34 3 0 20 -13
40 -26 40 -21 0 -17 28 5 40 11 5 24 10 28 10 14 0 33 -63 33 -110 0 -61 34
-126 83 -158 37 -24 50 -27 132 -27 87 0 95 2 176 42 174 87 360 275 451 458
84 169 148 508 148 788 0 254 -40 462 -126 652 -25 55 -54 128 -66 162 l-20
61 22 24 c31 32 46 65 64 135 21 79 20 101 -5 176 -38 114 -154 249 -259 302
-65 33 -180 58 -226 49 -33 -6 -34 -5 -34 26 0 24 -12 44 -54 88 -75 80 -104
131 -127 224 -11 45 -31 103 -45 129 -29 59 -29 59 -3 59 29 0 79 53 79 85 0
14 -7 39 -15 55 -18 34 -131 121 -183 140 -57 20 -65 38 -29 69 55 50 32 142
-40 159 -192 46 -256 63 -304 81 l-56 21 -59 116 c-70 138 -92 164 -144 164
-53 0 -80 -25 -94 -90 -15 -65 -10 -65 -170 -14 -124 40 -242 59 -441 73 -156
11 -214 25 -327 82 -92 46 -143 51 -176 17z m318 -1306 c0 -127 -21 -315 -55
-503 -14 -75 -25 -145 -25 -154 0 -12 19 -1 65 40 42 36 65 51 65 41 0 -26 13
-19 71 42 129 132 270 327 362 500 25 46 47 79 51 74 16 -27 24 -110 14 -162
-10 -53 -46 -135 -87 -195 -31 -45 -26 -48 30 -19 40 20 50 22 45 10 -3 -9 -9
-24 -13 -33 -5 -13 4 -11 43 11 81 47 137 94 174 146 19 27 38 50 41 50 15 0
112 -117 150 -181 61 -102 87 -183 98 -303 10 -97 3 -250 -15 -354 -57 -336
-323 -653 -658 -783 -194 -76 -340 -43 -565 127 -303 229 -411 481 -411 960
l0 169 35 68 c115 223 288 400 520 529 28 15 53 28 58 28 4 0 7 -48 7 -108z
m2045 -356 c57 -26 154 -124 187 -189 39 -78 16 -182 -49 -212 -35 -17 -35
-17 -82 16 -157 112 -320 241 -326 259 -14 45 29 116 85 139 46 18 131 12 185
-13z m-3427 -14 c39 -17 49 -36 32 -56 -9 -12 -6 -18 14 -31 45 -30 33 -49
-86 -138 -62 -46 -147 -109 -189 -139 l-76 -57 -34 17 c-68 34 -91 133 -50
212 90 175 253 255 389 192z m3123 -186 c14 -7 104 -71 199 -142 l173 -128 39
-83 c47 -100 56 -158 35 -233 -24 -87 -92 -270 -152 -410 -30 -71 -55 -135
-55 -142 0 -59 -176 -528 -226 -604 -79 -119 -209 -236 -314 -283 l-43 -19
-45 50 c-25 27 -69 63 -98 79 -43 24 -62 45 -100 107 -27 42 -68 98 -92 124
l-44 47 15 68 15 68 -50 47 c-28 26 -89 66 -135 89 -45 24 -83 45 -83 49 0 3
6 14 13 24 13 18 18 16 96 -24 45 -23 83 -41 86 -39 2 2 -3 35 -11 73 -11 53
-12 82 -4 125 5 30 10 57 10 59 0 3 16 -11 35 -31 19 -19 48 -38 65 -42 35 -8
96 1 105 15 3 4 -2 34 -10 66 -21 80 -16 237 8 261 3 3 36 -16 72 -42 37 -26
68 -45 70 -43 2 2 0 33 -5 68 -20 135 -5 370 22 370 6 0 28 -14 50 -31 22 -18
43 -28 47 -23 20 21 53 134 58 196 3 38 9 68 14 68 17 0 40 144 33 206 l-6 63
38 4 c86 8 150 6 175 -7z m558 -711 c53 -164 65 -250 66 -470 0 -149 -5 -228
-18 -310 -28 -167 -74 -332 -113 -410 -60 -119 -173 -253 -273 -324 -26 -19
-26 -19 -65 15 -29 25 -36 37 -29 46 37 46 21 177 -28 224 -26 25 -29 34 -29
94 0 57 6 80 39 151 44 95 137 351 180 497 16 53 55 162 88 242 33 80 77 194
98 253 26 74 41 104 46 95 5 -7 22 -54 38 -103z m-4064 20 c14 -38 38 -104 52
-145 14 -41 45 -119 69 -174 24 -54 58 -146 74 -204 43 -146 156 -456 191
-521 24 -45 29 -66 29 -124 0 -63 -3 -71 -30 -98 -48 -49 -62 -128 -35 -204 8
-21 13 -40 12 -40 -1 0 -19 -13 -40 -29 l-38 -28 -37 28 c-152 117 -268 292
-317 481 -80 305 -97 649 -43 883 26 113 74 257 83 249 2 -2 15 -35 30 -74z
m1930 -637 c69 -1 128 8 181 29 12 4 14 -13 14 -100 l0 -105 -32 -28 c-18 -15
-51 -35 -73 -45 -93 -41 -160 -33 -239 26 l-46 36 0 113 0 113 58 -19 c36 -12
86 -20 137 -20z m1659 -720 c6 -35 4 -38 -26 -54 -18 -9 -46 -27 -61 -40 -31
-26 -62 -31 -73 -12 -5 7 12 30 43 58 28 26 58 61 68 80 14 27 19 30 30 19 7
-8 16 -31 19 -51z m-3075 -62 c39 -38 48 -53 39 -63 -14 -17 -33 -16 -48 2 -7
8 -35 27 -62 42 -48 26 -49 28 -43 62 4 20 11 44 17 55 10 18 12 17 29 -15 9
-19 40 -56 68 -83z m3117 -151 c16 -13 17 -16 4 -25 -21 -14 -109 -40 -136
-40 -26 0 -59 29 -47 41 15 15 87 38 124 38 19 1 44 -6 55 -14z m-3127 -26
c42 -18 44 -21 28 -36 -22 -23 -84 -20 -143 6 -47 21 -50 35 -10 51 26 11 67
4 125 -21z"/>
<path d="M1995 3304 c-96 -25 -115 -36 -154 -92 -22 -31 -39 -57 -38 -58 1 -2
29 7 62 18 84 28 203 34 289 14 38 -9 70 -15 71 -14 5 7 25 72 25 83 0 31
-187 66 -255 49z"/>
<path d="M2857 3236 c-66 -18 -71 -25 -57 -76 10 -39 14 -42 38 -36 146 31
260 28 349 -9 20 -8 38 -13 41 -10 3 2 -13 29 -36 58 -35 47 -47 56 -99 70
-70 20 -169 21 -236 3z"/>
<path d="M1983 3065 c-36 -16 -129 -98 -145 -130 -6 -11 10 -1 36 23 55 51
117 81 165 82 48 0 111 -40 141 -89 43 -71 51 -78 29 -26 -53 129 -135 180
-226 140z"/>
<path d="M2904 3022 c-24 -18 -52 -53 -72 -89 -43 -82 -40 -89 7 -16 40 63
100 103 152 103 30 0 112 -40 159 -77 l35 -27 -35 38 c-47 51 -126 96 -171 96
-24 0 -49 -10 -75 -28z"/>
<path d="M2033 2950 c-34 -14 -63 -68 -63 -117 0 -84 89 -145 159 -108 140 72
49 283 -96 225z"/>
<path d="M2894 2936 c-49 -22 -74 -61 -74 -118 0 -43 4 -54 34 -84 38 -38 86
-45 135 -19 30 15 61 69 61 104 0 85 -84 147 -156 117z"/>
<path d="M4230 3250 c-16 -16 -18 -25 -10 -40 6 -11 18 -20 28 -20 25 0 179
-135 186 -164 13 -51 80 -39 74 13 -2 21 -10 27 -35 31 -44 7 -183 125 -183
155 0 21 -17 45 -32 45 -4 0 -17 -9 -28 -20z"/>
<path d="M835 3234 c-8 -9 -14 -24 -11 -33 6 -22 -138 -144 -178 -151 -25 -4
-32 -11 -34 -32 -5 -39 30 -56 58 -28 11 11 20 26 21 33 1 19 150 143 182 150
22 6 27 13 27 36 0 40 -35 54 -65 25z"/>
<path d="M4605 3360 c10 -11 20 -18 23 -15 7 6 -18 35 -31 35 -5 0 -2 -9 8
-20z"/>
<path d="M3274 1194 c-5 -1 -25 -5 -45 -8 -47 -8 -119 -57 -142 -96 l-19 -31
-40 45 c-60 69 -111 81 -314 79 -89 -2 -174 -7 -189 -13 -19 -7 -38 -7 -59 -1
-49 16 -449 19 -468 3 -12 -10 -21 -9 -44 3 -56 29 -197 15 -239 -25 l-23 -22
-32 24 c-26 19 -46 24 -119 26 -102 4 -139 -9 -172 -61 -20 -31 -20 -44 -17
-452 5 -456 6 -463 62 -500 56 -37 196 -27 244 17 l22 21 23 -21 c36 -34 124
-49 189 -33 64 15 64 15 258 1 183 -13 248 -9 295 20 l35 22 48 -24 c67 -33
167 -33 212 1 l32 23 39 -21 c74 -42 205 -36 256 11 20 19 22 19 46 3 62 -40
216 -58 301 -34 98 27 165 104 197 226 22 88 44 362 34 438 -11 86 -36 198
-51 228 -29 55 -84 105 -133 122 -44 14 -167 34 -187 29z m-1355 -108 c14 -17
15 -784 1 -821 -9 -23 -14 -25 -78 -25 -40 0 -73 5 -80 12 -8 8 -12 48 -12
114 0 118 -7 130 -72 121 -22 -3 -44 -11 -48 -17 -4 -6 -10 -55 -14 -108 -4
-53 -12 -102 -18 -109 -8 -10 -31 -13 -77 -11 l-66 3 -6 115 c-12 222 -10 705
3 718 7 7 40 12 80 12 56 0 69 -3 78 -19 6 -12 10 -95 10 -200 0 -175 1 -180
22 -195 28 -20 68 -20 94 -2 18 14 19 26 16 188 -2 188 4 217 48 229 43 12
107 10 119 -5z m408 4 c103 0 114 -2 133 -22 24 -26 26 -75 4 -106 -14 -20
-23 -22 -119 -22 -57 0 -110 -3 -119 -6 -13 -5 -16 -22 -16 -85 0 -87 9 -99
69 -99 42 0 61 -23 61 -74 0 -50 -10 -61 -64 -69 -22 -4 -45 -12 -53 -19 -18
-19 -29 -149 -14 -176 11 -20 20 -22 93 -22 99 0 118 -12 118 -76 0 -71 -8
-74 -194 -74 -160 0 -225 10 -227 33 -2 37 4 412 10 591 8 250 3 241 126 232
44 -3 130 -6 192 -6z m592 -19 c19 -9 43 -27 53 -41 27 -37 48 -128 50 -217 3
-93 -10 -123 -85 -196 l-50 -48 12 -39 c6 -22 34 -85 62 -140 28 -55 49 -111
47 -123 -3 -20 -9 -22 -74 -25 -50 -2 -74 1 -82 11 -6 7 -29 63 -51 125 -79
221 -98 227 -93 31 3 -100 0 -138 -10 -152 -18 -24 -97 -27 -130 -5 -23 15
-25 25 -31 115 -13 183 -8 687 6 706 22 30 313 29 376 -2z m487 14 c84 -25
115 -74 138 -214 12 -75 13 -123 5 -244 -15 -238 -43 -325 -121 -372 -51 -31
-198 -28 -255 4 -24 14 -55 43 -70 65 -28 41 -28 41 -27 211 1 190 23 373 55
445 22 49 63 97 94 110 32 14 127 11 181 -5z m-967 -312 l0 -78 -14 46 c-17
53 -36 73 -91 93 l-39 15 73 0 72 1 -1 -77z m-1 -298 c-2 -1 -33 0 -70 3 -57
4 -68 7 -68 22 0 12 10 20 33 24 34 6 76 44 93 81 6 14 10 0 12 -54 2 -40 2
-74 0 -76z"/>
<path d="M2706 937 c-16 -12 -18 -25 -14 -105 2 -55 9 -97 17 -105 6 -6 36
-12 66 -12 78 0 99 23 98 108 -1 73 -14 104 -49 117 -36 14 -97 12 -118 -3z"/>
<path d="M3281 909 c-32 -34 -42 -95 -48 -279 -5 -172 -5 -176 19 -210 18 -27
31 -35 53 -35 26 0 33 7 55 50 24 48 25 57 25 240 0 163 -3 195 -18 223 -21
38 -56 43 -86 11z"/>
<path d="M1670 130 c0 -5 5 -10 10 -10 6 0 10 5 10 10 0 6 -4 10 -10 10 -5 0
-10 -4 -10 -10z"/>
</g>
</svg>
